<svg xmlns="http://www.w3.org/2000/svg" viewBox="0 0 86 172"><path fill="#FFFFFF" fill-rule="evenodd" d="M85.814.56c0 6.74-.042 14.291-.125 22.654a3033.49 3033.49 0 0 0-.125 29.646v50.553c0 10.235-1.518 19.264-4.556 27.086-3.037 7.822-7.718 14.521-14.042 20.097-6.324 5.575-14.375 10.13-24.153 13.668-9.778 3.536-21.449 5.929-35.013 7.177L.186 138.737c6.99-.832 13.106-1.934 18.349-3.307 5.242-1.373 9.82-3.558 13.73-6.554 4.161-3.245 7.302-7.322 9.424-12.232 2.122-4.91 3.183-11.4 3.183-19.472 0-6.491.021-13.336.063-20.534.041-7.198.062-14.625.062-22.28 0-13.315-.062-23.904-.187-31.768A6014.6 6014.6 0 0 1 44.498.56h41.316z"/></svg>