<svg xmlns="http://www.w3.org/2000/svg" viewBox="0 0 40 40"><g fill="none" fill-rule="evenodd"><circle cx="20" cy="20" r="20" fill="#383838"/><path fill="#FFFFFF" fill-rule="nonzero" d="M24.83 21.847c0 2.22-.144 4.939-2.155 6.648-1.673 1.422-4.175 2.065-6.205 2.476l-.975-.948c2.02-.304 4.71-1.016 6.44-2.485 1.664-1.415 1.793-3.623 1.793-5.69V10.664l1.102.878v10.304zM23.732 9.921h-4.829c.01.801.022 1.664.037 2.587.015.923.022 2.166.022 3.73 0 .898-.003 1.77-.007 2.615a395.69 395.69 0 0 0-.008 2.411c0 .947-.124 1.71-.374 2.286a3.608 3.608 0 0 1-1.106 1.436 4.49 4.49 0 0 1-1.612.77 16.09 16.09 0 0 1-2.154.388l.894 3.84 1.658 1.602c1.589-.146 3.144-.565 4.29-.979 1.145-.414 2.088-.947 2.828-1.6a5.984 5.984 0 0 0 1.645-2.354c.356-.917.534-1.974.534-3.173v-5.92c0-1.335.004-2.493.014-3.472.01-.98.015-1.864.015-2.71l-1.847-1.457z"/></g></svg>